<?xml version="1.0" encoding="UTF-8" standalone="no"?>
<svg
   viewBox="0 0 120 52"
   width="120"
   height="52"
   version="1.1"
   id="svg1"
   sodipodi:docname="cj-white.svg"
   inkscape:version="1.4.3 (0d15f75, 2025-12-25)"
   xmlns:inkscape="http://www.inkscape.org/namespaces/inkscape"
   xmlns:sodipodi="http://sodipodi.sourceforge.net/DTD/sodipodi-0.dtd"
   xmlns="http://www.w3.org/2000/svg"
   xmlns:svg="http://www.w3.org/2000/svg">
  <defs
     id="defs1" />
  <sodipodi:namedview
     id="namedview1"
     pagecolor="#505050"
     bordercolor="#eeeeee"
     borderopacity="1"
     inkscape:showpageshadow="0"
     inkscape:pageopacity="0"
     inkscape:pagecheckerboard="0"
     inkscape:deskcolor="#505050"
     inkscape:zoom="4"
     inkscape:cx="83.25"
     inkscape:cy="28.125"
     inkscape:window-width="1920"
     inkscape:window-height="974"
     inkscape:window-x="-11"
     inkscape:window-y="-11"
     inkscape:window-maximized="1"
     inkscape:current-layer="svg1" />
  <path
     d="M 41.476562,8.7832031 38.9375,19.726562 h -0.990234 q -0.177735,-4.468749 -2.208985,-6.652343 -2.005859,-2.208985 -5.255859,-2.208985 -3.503906,0 -6.982422,2.996094 -3.478516,2.996094 -5.890625,9.166016 -1.955078,5.001953 -1.955078,9.876953 0,4.367187 2.132812,6.677734 2.158203,2.285156 5.890625,2.285156 3.021485,0 5.509766,-1.320312 2.488281,-1.320313 5.027344,-4.291016 h 1.21875 q -3.148438,4.722657 -6.373047,6.626953 -3.199219,1.904297 -7.845703,1.904297 -6.220703,0 -10.029297,-3.757812 -3.7832033,-3.783203 -3.7832033,-9.851563 0,-5.6875 3.0214843,-10.841797 3.021485,-5.179687 8.683594,-8.353515 5.6875,-3.1992189 11.298828,-3.1992189 2.132812,0 5.306641,0.9140625 1.625,0.4570314 2.259765,0.4570314 1.269531,0 2.564453,-1.3710939 z m 10.095704,1.7265629 0.279296,-0.9394535 h 16.910157 l -0.279297,0.9394535 q -2.335938,0 -3.63086,1.066406 -1.269531,1.041016 -2.132812,4.037109 l -3.681641,12.898438 q -2.005859,6.982422 -3.529297,9.77539 -1.498046,2.792969 -4.291015,4.646485 -2.767578,1.853515 -7.058594,1.853515 -3.478516,0 -5.179687,-1.447265 -1.701172,-1.472657 -1.701172,-3.707032 0,-1.853515 1.142578,-3.072265 1.167969,-1.244141 2.640625,-1.244141 1.320312,0 2.208984,0.837891 0.914063,0.83789 0.914063,2.05664 0,1.117188 -1.091797,2.41211 -0.660156,0.8125 -0.660156,1.294922 0,0.40625 0.355468,0.685547 0.609375,0.457031 1.396485,0.457031 1.472656,0 2.742187,-1.929688 Q 48.195312,39.201172 50.607422,31 l 4.519531,-15.386719 q 0.583984,-2.03125 0.583984,-2.919922 0,-0.939453 -0.710937,-1.472656 -0.710938,-0.533203 -3.427734,-0.710937 z m 6.541015,41.386718 h 26.964844 v 3.326172 H 58.113281 Z"
     id="text1"
     style="font-style:italic;font-weight:bold;font-size:52px;font-family:'Times New Roman', Times, serif;letter-spacing:-1;fill:#f5f4ef"
     aria-label="CJ_" />
</svg>
